/* XPM */
static char *icon[] = {
/* columns rows colors chars-per-pixel */
"48 48 256 2",
"   c #0A070A",
".  c #0A0B0A",
"X  c #061D05",
"o  c #0B140A",
"O  c #0B1C0A",
"+  c #071206",
"@  c #141514",
"#  c #131913",
"$  c #1B1C1B",
"%  c #092C07",
"&  c #0C230A",
"*  c #0D2B0B",
"=  c #072706",
"-  c #102B0C",
";  c #12210C",
":  c #0D340B",
">  c #0D3B0B",
",  c #0B3107",
"<  c #12340C",
"1  c #113B0B",
"2  c #193C0F",
"3  c #132313",
"4  c #152B14",
"5  c #1B241B",
"6  c #1E2A1E",
"7  c #0B3A11",
"8  c #143613",
"9  c #143B14",
"0  c #1A3A19",
"q  c #1F301C",
"w  c #202B1F",
"e  c #222222",
"r  c #252C24",
"t  c #2A2A2A",
"y  c #253025",
"u  c #243D24",
"i  c #2D312E",
"p  c #2B3C2B",
"a  c #333433",
"s  c #323B32",
"d  c #3A3B3A",
"f  c #0A4707",
"g  c #0A4906",
"h  c #0D430B",
"j  c #0D4B0B",
"k  c #14450B",
"l  c #114C0E",
"z  c #1B4E0E",
"x  c #095F06",
"c  c #0E540B",
"v  c #0E5C0B",
"b  c #13530E",
"n  c #115B0B",
"m  c #1C5B0F",
"M  c #1A530D",
"N  c #0E4110",
"B  c #144413",
"V  c #1B4314",
"C  c #124C12",
"Z  c #1A4C1A",
"A  c #19461A",
"S  c #145314",
"D  c #1B5D12",
"F  c #1C541C",
"G  c #1B5C1B",
"H  c #175F17",
"J  c #214E13",
"K  c #235A13",
"L  c #2A5C1A",
"P  c #265419",
"I  c #0D640C",
"U  c #0C6C0B",
"Y  c #076505",
"T  c #11640B",
"R  c #106A0A",
"E  c #077406",
"W  c #0D730C",
"Q  c #0C7B0B",
"!  c #087507",
"~  c #12740B",
"^  c #127A0C",
"/  c #136212",
"(  c #1A6715",
")  c #1C6B14",
"_  c #1C6519",
"`  c #1B6C1A",
"'  c #136813",
"]  c #127211",
"[  c #1B7213",
"{  c #137B13",
"}  c #1B7B14",
"|  c #1B7418",
" . c #1C7B1D",
".. c #2B780E",
"X. c #2B6514",
"o. c #2C6B14",
"O. c #2B661A",
"+. c #26651D",
"@. c #30691A",
"#. c #2A7214",
"$. c #2A7C1B",
"%. c #257716",
"&. c #337915",
"*. c #34751C",
"=. c #397C1D",
"-. c #357916",
";. c #244124",
":. c #2B412B",
">. c #274A25",
",. c #255A23",
"<. c #2B5C25",
"1. c #2A5929",
"2. c #30562F",
"3. c #3C463C",
"4. c #344834",
"5. c #3D533D",
"6. c #3B5B3A",
"7. c #365933",
"8. c #1F6020",
"9. c #226323",
"0. c #226B21",
"q. c #296B2A",
"w. c #2E642C",
"e. c #376B25",
"r. c #247323",
"t. c #2B7925",
"y. c #287B28",
"u. c #3C7521",
"i. c #3C7E21",
"p. c #317D2F",
"a. c #316B31",
"s. c #3B6B31",
"d. c #3F673F",
"f. c #396737",
"g. c #3A7B3A",
"h. c #46792F",
"j. c #436C3E",
"k. c #497437",
"l. c #527D3D",
"z. c #413F41",
"x. c #434343",
"c. c #4A4C4A",
"v. c #435242",
"b. c #4A554A",
"n. c #525252",
"m. c #5A5B5A",
"M. c #525A52",
"N. c #486947",
"B. c #447342",
"V. c #437A43",
"C. c #4A7E49",
"Z. c #5E7F4C",
"A. c #5B625B",
"S. c #5A6C5A",
"D. c #547854",
"F. c #647C5F",
"G. c #098507",
"H. c #0C830B",
"J. c #0D8C0B",
"K. c #10850B",
"L. c #0D930C",
"P. c #0C9B0B",
"I. c #079206",
"U. c #13910D",
"Y. c #15970D",
"T. c #118211",
"R. c #1C8A1B",
"E. c #1A8718",
"W. c #119E10",
"Q. c #1C921B",
"!. c #1C9D1C",
"~. c #189B15",
"^. c #28850F",
"/. c #3A8C0E",
"(. c #34870F",
"). c #3B900B",
"_. c #238412",
"`. c #248B14",
"'. c #2B8917",
"]. c #3A8E14",
"[. c #3A821B",
"{. c #3C8B1A",
"}. c #358418",
"|. c #2C9212",
" X c #23961C",
".X c #21991C",
"XX c #269614",
"oX c #3C9115",
"OX c #33931A",
"+X c #3E931A",
"@X c #389C1A",
"#X c #0DA30B",
"$X c #0CAB0C",
"%X c #07A606",
"&X c #12AC0D",
"*X c #0BB40B",
"=X c #19B90E",
"-X c #19A412",
";X c #16AF18",
":X c #19AB15",
">X c #0FB913",
",X c #1EBD14",
"<X c #16B615",
"1X c #2AA114",
"2X c #22A31B",
"3X c #23AA1A",
"4X c #27AC18",
"5X c #31AA1C",
"6X c #23B41B",
"7X c #2ABB19",
"8X c #32B91E",
"9X c #298D29",
"0X c #3C8220",
"qX c #398A20",
"wX c #259E22",
"eX c #2C9C2B",
"rX c #3D9820",
"tX c #3C853C",
"yX c #3D983D",
"uX c #2EA124",
"iX c #33B824",
"pX c #3CA73C",
"aX c #3EB93E",
"sX c #418C15",
"dX c #42941C",
"fX c #449A1A",
"gX c #489C1F",
"hX c #4BA01F",
"jX c #408621",
"kX c #4D8D29",
"lX c #548D2F",
"zX c #439420",
"xX c #479B21",
"cX c #499E20",
"vX c #4D8A32",
"bX c #4BA121",
"nX c #0BC30B",
"mX c #0CC80D",
"MX c #1BC20E",
"NX c #1DC413",
"BX c #1DCC14",
"VX c #16C318",
"CX c #1DD219",
"ZX c #23C414",
"AX c #29C418",
"SX c #21D01D",
"DX c #26C626",
"FX c #2BD52B",
"GX c #45D132",
"HX c #438441",
"JX c #4B8847",
"KX c #5D8745",
"LX c #64874F",
"PX c #688652",
"IX c #4AB443",
"UX c None",
/* pixels */
"UXUXUXUXUXUXUXUXUXUXUXUXUXUXUXUXUXUXUXUXUXUXUXUXUXUXUXUXUXUXUXUXUXUXUXUXUXUXUXUXUXUXUXUXUXUXUXUX",
"UXUXUXUXUXUXUXUXUXUXl.k.k.k.UXUXUXUXUXUXUXUXUXUXUXUXUXUXUXUXUXUXUXUXUXUXUXUXUXUXUXUXUXUXUXUXUXUX",
"UXUXUXUXUXUXUXKXvXjX{.].oX].&.*.s.UXUXUXUXUXUXUXUXUXUXUXUXUXUXUXUXUXUXUXUXUXUXUXUXUXUXUXUXUXUXUX",
"UXUXUXUXUXPXlXsX/.{.{.+XcXbXhXfX/.#.j.UXUXUXUXUXUXUXUXUXUXUXUXUXUXUXUXUXUXUXUXUXUXUXUXUXUXUXUXUX",
"UXUXUXUXLXkX/.).oX].].].+XgXhXhXhXoX..s.UXUXUXUXUXUXUXUXUXUXUXUXUXUXUXUXUXUXUXUXUXUXUXUXUXUXUXUX",
"UXUXUXC.t.$.{.dX+XoXoX].oXoXfXgXhXcXfX..s.UXUXUXUXUXUXUXUXUXUXUXUXUXUXUXUXUXUXUXUXUXUXUXUXUXUXUX",
"UXUXJXwX-X .( $.qX+X+XoXoXoXoXdXxXxXgXdX#.N.UXUXUXUXUXUXUXUXUXUXUXUXUXUXUXUXUXUXUXUXUXUXUXUXUXUX",
"UXUXeX$X>X!.' _ ( %.{.+XoXoXoXoX+XzXzXzX{.+.F.Z.l.h.u.@.X.X.X.L <.6.UXUXUXUXUXUXUXUXUXUXUXUXUXUX",
"UXHX:X*X>X-X` | ( ) ) $.OXdX@X+X].{.{.zXdX&.i.jX[.[.=.=.-.-.*.@.X.X.K P v.UXUXUXUXUXUXUXUXUXUXUX",
"UXt.!.<X:XE.] { .X3X.X} %.'.rXdX@X5X5X].{.[.[.[.0X[.i.i.=.h.*.@.@.L J k , w x.UXUXUXUXUXUXUXUXUX",
"k.%.E.`.`.{ }  X,X=XNX2X`.`.`.OX8XAX7XOX{.[.[.-.*.*.O.K J J 2 2 < < 1 1 < X o t UXUXUXUXUXUXUXUX",
"w.~ ^.^._._.'.uXNXNXBX6X3XiX1X`.4XAX7X|...o.K z k 1 < < - - - ; - 1 1 , - - & X 5 UXUXUXUXUXUXUX",
",.^ |.XX2X6X4X4X6XZX7X3X8XGX4X_.) | ( T n k 1 1 < < < , - - * * < 1 * ; * % < : X $ UXUXUXUXUXUX",
"r.Y.1X7XSXCXMX,X3X XXX`.Y.U.{ c f > v ^ H.~ f < < , - - * & & - k , & & < > < * & + $ UXUXUXUXUX",
"p.;X6XZXBXBX,X=X-X~ n T K.U.c j h c H.Q Q G.T 1 , , * * * & - < k & , , 1 1 & ; O ; + t UXUXUXUX",
"vXW.NX=X&X#XP.P.P.U n v U R c h j H.J.Q Q ! R < - * * & & & & k 1 & , > < & & & ; O o o x.UXUXUX",
"UX^ P.P.#XP.P.P.P.Q K.H.I c j h h W H.Q Q ! c * & * & & & & O c : & 1 > O O O - & O o + @ UXUXUX",
"UX,.Y P.#X#XP.#XJ.J.P.P.Q c c h h > v W W v % O O & & & & O * c : , h & O + o O * O o O . d UXUX",
"UXUXc G.P.#X#XY.~ Q P.L.~ b b c U U j h 7 j = O o O O O O O * c j > < + o + ; ; : & O o o $ UXUX",
"UXUXa.E H.P.H.^ K.L.L.Q v v j U J.J.W : 7 v 7 O O o o o O O : N T k * . o ; + o : ; + ; O 4 N.UX",
"UXUXUX9.Y J.^ H.P.P.#XJ.R n c U J.J.W 7 = % O O O o o o o o : : R c + o & o . . > O . o & n 2.UX",
"UXUXUXUX,.Y Q U.$X#X#X$XL.T b v U U j : : & & & X O O o o . % h c ~ * & O   . o k . . . j / r UX",
"UXUXUXUXUX6.S ! #X$X$X$XP.R b n v j 7 > C % O O O O o & : O o j v c R j o   + k %   O c T k $ UX",
"UXUXUXUXUXUXUX2.( ^ H.H.W T W J.J.U c { / % & : v v % % U % . : ~ j h ~ T f c v > c R c & 1 w m.",
"UXUXUXUXUXUXUXUXUXS.S x T T J.P.J.J.' Q ' % & c H.H.j & 7 o o = v n c ~ ~ R U R T c * . o 9 e n.",
"UXUXUXUXUXUXUXUXUXUX` Y T I P.$XJ.H.c h 7 = & N W W N o . * c 7 c > o > j % & . .       , 8 e n.",
"UXUXUXUXUXUXUXUXUXUX} G.~ n W J.H.U > : * = O & 7 7 & o + N ! j c f   7 G.! x & . .   * j # e n.",
"UXUXUXUXUXUXUXUXUXUXR.%XW n c c U v 7 7 7 = % 7 = o o o o o % o c x O v Q J.J.c O X > c X @ t m.",
"UXUXUXUXUXUXUXUXUXUX9XI.W v j j Q J.Q T.W N U W v * 7 * o o o . > I > c U W H.! b c > o   $ i UX",
"UXUXUXUXUXUXUXUXUXUXp.E U c j N U J.H.L.L.H.Q W H.U U x j x o o c J.x , Y U x & . . % g f y d UX",
"UXUXUXUXUXUXUXUXUXUXUXI v j j j H.#XL.H.Q L.Q W L./ S N 7 j o = U L.J.: O = O     & I ! U a.x.UX",
"UXUXUXUXUXUXUXUXUXUXUXF g j j Q #X%X*X$XJ.Q U U v & o = j j 7 o g I Q ' N G 8 .   : ! I E.tXA.UX",
"UXUXUXUXUXUXj.,.k h A F f k f n L.*XmXnX#X/ & N N = o C W W v & . o 7 { Q.W.E.&   O x U 9XV.UXUX",
"UXUXUXUXUXf.C j h g f g f > > : j H.#X$XW * 7 U W v & N T.T.Q 9 @   o j Q.W.~.N .   & A d.M.UXUX",
"UXUXUXUX1.h h k j h h v j : : % % % 7 N 7 O N ! H.Q * 7 R.-X .4 .     . S R.W.W O .   a x.UXUXUX",
"UXUXUX2.> h f > > h > > : : * * % 7 j F % = 7 ] ;X!.9 : N B 3 # @ o O * o 7 Q T.] c >.v.m.UXUXUX",
"UXUXv.8 , > > > > > : : : * & % * % j H S C 7 C  .G < F Z & # # r.8.C W * . O c Q  XIXJXUXUXUXUX",
"UXUXp = , , > > : > : : * * & * 7 N v  .aXFX| 7 : 8 : C A O 3 3 8.F 9 h Z 8.o   3 B.JXUXUXUXUXUX",
"UXUX6 = : : : : : , : % : > B f.N v / I uXSX` 7 : 8 : * & _ .X .*   .   9 8.o $ d x.UXUXUXUXUXUX",
"UXUX5 X % * % : 1 k z z D m 9.7.3.% N j C S 9 : * * * & 0 DXmX;XZ   . . o o e z.z.UXUXUXUXUXUXUX",
"UXUXy , k l b D m ( ( m M S q.5.UXc.4 % : 7 * * * & O & q eXVX!.8   3 0 y.tX3.x.UXUXUXUXUXUXUXUX",
"UXUXv.N / _ ) ) ( X._ ` H _ B.b.UXUXUXi 3 * 8 8 A F 4 4 3 0 8.A 3 3 ;.yXpXV.S.UXUXUXUXUXUXUXUXUX",
"UXUXUX;.S 0.r.r.0.r.0.8.0.JXN.UXUXUXUXUXUXs 6 4 A 1.u ;.;.;.u p p p s d.D.UXUXUXUXUXUXUXUXUXUXUX",
"UXUXUXUX0 F 8.0.0.8.9.q.V.N.m.UXUXUXUXUXUXUXUXc.a r w w w w y i d c.UXUXUXUXUXUXUXUXUXUXUXUXUXUX",
"UXUXUXUXUXu A F ,.q.a.j.5.m.UXUXUXUXUXUXUXUXUXUXUXUXUXUXUXUXUXUXUXUXUXUXUXUXUXUXUXUXUXUXUXUXUXUX",
"UXUXUXUXUXUXb.:.:.:.4.b.UXUXUXUXUXUXUXUXUXUXUXUXUXUXUXUXUXUXUXUXUXUXUXUXUXUXUXUXUXUXUXUXUXUXUXUX",
"UXUXUXUXUXUXUXUXUXUXUXUXUXUXUXUXUXUXUXUXUXUXUXUXUXUXUXUXUXUXUXUXUXUXUXUXUXUXUXUXUXUXUXUXUXUXUXUX",
"UXUXUXUXUXUXUXUXUXUXUXUXUXUXUXUXUXUXUXUXUXUXUXUXUXUXUXUXUXUXUXUXUXUXUXUXUXUXUXUXUXUXUXUXUXUXUXUX"
};
