/* XPM */
static char *icon[] = {
/* columns rows colors chars-per-pixel */
"48 48 136 2",
"   c #000100",
".  c #020B01",
"X  c #080E07",
"o  c #0B0C0B",
"O  c #031301",
"+  c #091407",
"@  c #041C01",
"#  c #0A1C07",
"$  c #081108",
"%  c #0A1B0A",
"&  c #171717",
"*  c #191919",
"=  c #032301",
"-  c #082403",
";  c #032C01",
":  c #0A2C03",
">  c #033401",
",  c #0B3303",
"<  c #033C01",
"1  c #0B3C02",
"2  c #093409",
"3  c #1C2C1B",
"4  c #20351C",
"5  c #24381F",
"6  c #262D26",
"7  c #233322",
"8  c #243C24",
"9  c #283D23",
"0  c #343634",
"q  c #343A34",
"w  c #044301",
"e  c #0D4402",
"r  c #054B01",
"t  c #0C4B02",
"y  c #084508",
"u  c #104C03",
"i  c #055401",
"p  c #0C5202",
"a  c #045B01",
"s  c #115403",
"d  c #125C02",
"f  c #046302",
"g  c #086401",
"h  c #046B02",
"j  c #096D01",
"k  c #156303",
"l  c #166903",
"z  c #047302",
"x  c #057B02",
"c  c #087B01",
"v  c #087A08",
"b  c #146B14",
"n  c #266518",
"m  c #2C661F",
"M  c #284128",
"N  c #304030",
"B  c #306524",
"V  c #366D2A",
"C  c #386F2C",
"Z  c #2B772B",
"A  c #3B722F",
"S  c #336533",
"D  c #3D7331",
"F  c #4D4D4D",
"G  c #555555",
"H  c #555B54",
"J  c #5C5E5C",
"K  c #4C6746",
"L  c #4F7C4F",
"P  c #566153",
"I  c #5E625D",
"U  c #62705F",
"Y  c #626462",
"T  c #656A65",
"R  c #696C69",
"E  c #6B746B",
"W  c #6E7B6B",
"Q  c #727272",
"!  c #787E77",
"~  c #7C7D7C",
"^  c #038301",
"/  c #088001",
"(  c #048C01",
")  c #0F8C04",
"_  c #039301",
"`  c #049C01",
"'  c #0F9C03",
"]  c #1F881F",
"[  c #03A401",
"{  c #0AA502",
"}  c #05AA01",
"|  c #04BC01",
" . c #18A313",
".. c #20B512",
"X. c #03C501",
"o. c #04C801",
"O. c #04D802",
"+. c #06E701",
"@. c #0BE503",
"#. c #1EE810",
"$. c #6C8068",
"%. c #6C896C",
"&. c #748271",
"*. c #7C827C",
"=. c #7D8A7C",
"-. c #7C927C",
";. c #828382",
":. c #848C83",
">. c #8B8D8B",
",. c #879184",
"<. c #8B948A",
"1. c #8A998A",
"2. c #939493",
"3. c #969996",
"4. c #9C9C9C",
"5. c #9EA19D",
"6. c #A0A59F",
"7. c #A4A4A4",
"8. c #AAAAA9",
"9. c #ACB1AB",
"0. c #B4B4B4",
"q. c #BCBCBC",
"w. c #C4C4C4",
"e. c #CCCCCC",
"r. c #D3D3D3",
"t. c #D6D9D6",
"y. c #DBDBDB",
"u. c #DEE0DD",
"i. c #E4E4E4",
"p. c #EBEBEB",
"a. c #EEF0EE",
"s. c #F4F4F4",
"d. c #F7F8F7",
"f. c #F8F7F8",
"g. c #FDFDFD",
"h. c None",
/* pixels */
"h.h.h.h.h.h.e.t.t.t.y.t.y.y.u.y.y.y.y.y.y.y.y.y.y.y.y.y.y.y.y.y.u.y.y.t.t.t.t.t.t.e.h.h.h.h.h.h.",
"h.h.h.h.0.w.w.e.e.e.e.e.e.e.e.e.e.r.e.e.r.e.e.r.e.e.e.r.e.e.e.e.e.e.e.e.e.e.e.w.w.e.w.0.h.h.h.h.",
"h.h.h.8.q.w.r.p.f.g.f.f.f.f.g.f.f.g.g.f.g.f.f.g.g.g.f.f.g.f.g.g.f.f.f.g.f.f.g.s.p.e.w.q.8.h.h.h.",
"h.h.7.0.q.y.f.y.9.1.<.<.<.<.<.<.<.<.<.<.<.<.<.<.<.<.<.<.<.<.<.<.>.<.<.<.<.>.<.9.y.f.y.q.0.7.h.h.",
"h.3.0.0.y.a.,.9 , < t e e e e y 1 e e e 1 1 1 1 1 1 1 1 1 1 1 1 , 1 , 1 , , , : 5 =.p.i.0.9.2.h.",
"h.7.0.e.p.U : t k l l l l l l l l l k k l l l l l k k k d d k d d d d d d d s s e - P i.r.0.7.h.",
">.9.q.a.:.- t l l l l l k l k l k l k l k k d d d d k d d d d d d d d s s s s s s e - *.a.q.8.;.",
"2.0.r.u.7 > u d k k k k k k k k d k d d d n C C A D V B A m s d d s s s s s u u u u e 4 t.r.0.>.",
"4.0.p.8.- e t t t d k k k k d k d d d d p K e.y.u.u.u.t.u.$.p s u u u u u u u u u u u : 6.p.0.3.",
"4.0.a.2.= t t t t t p d d d d d d d d s > H s.g.g.g.g.g.f.W t u u u u u u u e u e e e : ;.s.q.3.",
"4.q.s.<.; t t t t e t t d d d d d s d s : I s.g.g.g.g.g.g.W t u u u 1 u u e e u e 1 e ; =.s.q.4.",
"3.q.s.>.; e t t w e e t t p d d d p s u = T f.g.g.g.g.g.f.W e e e e e u 4 e 1 1 1 1 1 : *.s.q.4.",
"4.q.a.<.@ ; < y t t t t t t p d s s s t = T d.g.g.g.g.g.s.&.1 1 e 1 1 1 1 1 1 1 1 1 , : ;.s.q.4.",
"4.w.s.<.< ; = ; < e t t r e t t p t u t = Y f.g.g.g.f.g.s.=.1 1 , 1 1 , , , , , , , , - *.s.q.5.",
"4.w.a.<.w < ; = = = < t t t t t t t t t = T d.f.s.s.g.g.s.=., , , , , , , , , : : , : - *.s.w.4.",
"5.w.s.<.< > ; < i r > > t p i t p t t e @ I s.f.g.g.g.g.i.W : : , : : : : : : : : - : @ ~ s.w.5.",
"5.w.s.<.= > < h ^ ^ f > < w p j ^ x t e @ H s.g.g.g.g.g.i.T = : : - : - - : - - - - - O *.s.w.4.",
"5.w.a.>.= < y x ^ _ ^ a h a w j ( ^ i < @ Y f.g.g.g.g.g.i.T - - - - - = - @ @ - - @ = O *.s.w.5.",
"5.w.a.<.< f a z ^ _ x z  .v r r f f t e @ Y f.g.g.g.g.g.u.! - = - @ - @ @ - @ @ @ @ @ O *.f.w.5.",
"5.e.s.1.f _ ^ x f a i h / j r < > r h h > I g.g.g.g.g.f.u.*.# @ @ @ + @ + @ + @ @ O @ . ~ s.w.7.",
"7.w.f.<.f _ ( ( h r i h ( a w < w z z z < I f.g.g.g.f.u.t.>.- O # + + + @ + + + O O O . *.s.w.7.",
"7.w.s.<.a _ ( ( z i i f z r < < h ^ x h > P f.g.g.g.p.r.e.2.# O O O @ O O O O O O O . . *.s.w.7.",
"7.e.s.1.a _ _ ( x z x f r w < < h x z h > T g.g.g.g.i.e.e.2.# O O O O O O O O . O O X . ~ f.e.7.",
"7.e.s.1.a _ ` _ x ( _ x i w < < < i h h ; T g.g.g.g.i.e.r.2.# . . . X . O . X . X . . . *.s.w.7.",
"7.e.s.1.f _ _ x h ( ( z i r w a f w < > = R g.g.g.f.i.e.r.3.+ . .   . . . . . . . . .   ~ s.e.7.",
"7.w.s.<.i ( z z ^ ( x i i t a ^ ^ h ; ; = R f.g.g.f.p.r.r.3.$ . . .   X   . .       .   ~ s.w.7.",
"7.e.s.<.i c z _ ` _ ( j i r a ^ x h > @ . T f.g.g.g.p.r.r.3.X . .   .         .     .   ~ f.e.7.",
"8.e.s.<.r c c ` ` ` [ _ f t r a a w ; ; . R s.g.g.f.y.e.r.2.X                           ~ s.e.8.",
"7.e.s.1.a ( x _ [ ` [ _ h r a a w > < y O T a.g.s.y.e.r.r.>.o                           ~ f.e.7.",
"8.e.s.1.h [ ( x ( ) c h a h x ^ h i v i . Y p.p.y.r.r.t.t.~ X                           ~ s.e.7.",
"7.e.s.1.f { ` _ _ / g a a / _ ( ^ a h i . G i.y.t.r.r.y.r.Q .                           ~ s.e.7.",
"8.e.s.<.a ` [ ` ` ` z g p ^ [ ^ x y > = X J i.i.t.r.r.r.r.T                             ~ s.e.8.",
"8.e.s.1.r ` ` [ [ [ ` z i a z z a > = = O J p.i.y.t.e.e.t.R                             ~ s.e.8.",
"7.e.s.<.w _ [ } | o.| x a r w f f w w ; $ ;.s.a.i.y.r.e.i.Y                             ~ s.e.8.",
"8.e.s.<.< x { o.+.+.{ j i w < h ^ x ] Z W i.g.g.g.g.s.a.s.J                             ~ s.e.7.",
"8.e.s.<.< g [ O.+.#.' g t < < a ^ h %.u.s.f.s.s.f.g.g.g.s.G                             ~ s.e.8.",
"8.e.s.<.> a ^ } { ..) a w w i ^ ( w E d.g.f.f.g.g.g.g.g.p.F                             ~ s.e.8.",
"7.e.s.<.> i i f j j d r w < h ` _ w T d.g.g.g.g.g.g.g.s.w.8         O < < .             ~ s.e.8.",
"8.e.s.<.; r r t r p e w < < < g _ w T s.s.s.d.d.s.s.i.w.L w .       : a a @             ;.s.e.7.",
"7.e.p.8.= < w < w < w r > ; = ; < ; T w.q.q.q.q.0.>.Y S f < .       @ r < .             4.a.e.7.",
"7.w.y.y.3 ; < < < > < w ; = = ; = O 6 q 0 q q M 3 o . > > .           . .             * r.u.w.5.",
"3.w.e.s.*.@ ; > > ; ; ; = = = = ; > 2 @ . . = w @   O       . = .                     Q s.e.w.>.",
"h.0.e.y.p.H O = > ; ; = @ @ @ = ; > y b h @ . O . . ; O     @ f + o   O .           F i.i.w.0.J ",
"h.7.e.e.p.p.~ 3 @ @ @ @ O O O O O @ = v _ ;             O = . .     . > O       & Q i.p.e.w.3.h.",
"h.h.0.r.y.s.g.r.5.;.*.*.*.*.*.*.*.*.*.=.-.*.~ ~ ~ ~ ~ ~ -.-.*.~ ~ ~ ~ *.~ ~ ~ 4.r.g.s.r.e.0.F h.",
"h.h.h.q.r.u.a.g.g.g.g.g.g.g.g.g.g.g.g.g.g.g.g.g.g.g.g.g.g.g.g.g.g.g.g.g.g.g.g.g.f.p.y.r.q.Y h.h.",
"h.h.h.h.0.t.y.u.i.i.i.i.i.i.i.p.i.p.p.i.p.p.p.i.p.p.p.i.p.i.i.p.i.i.i.i.i.i.i.u.y.y.r.9.G h.h.h.",
"h.h.h.h.h.;.q.t.u.i.u.i.i.i.i.i.i.i.i.i.i.i.i.i.i.i.i.i.i.i.i.i.i.i.i.i.i.i.u.i.r.0.~ h.h.h.h.h."
};
