/* XPM */
static char *icon[] = {
/* columns rows colors chars-per-pixel */
"48 48 126 2",
"   c #150101",
".  c #1B0000",
"X  c #230000",
"o  c #2D0000",
"O  c #2F0808",
"+  c #330000",
"@  c #3C0000",
"#  c #2B1D1D",
"$  c #361616",
"%  c #3E1616",
"&  c #321919",
"*  c #3F1C1C",
"=  c #3C2323",
"-  c #430000",
";  c #4C0000",
":  c #420F0F",
">  c #4A0C0C",
",  c #530000",
"<  c #5C0000",
"1  c #540B0B",
"2  c #5A0E0E",
"3  c #4B1212",
"4  c #4F1C1C",
"5  c #571B1B",
"6  c #591D1E",
"7  c #630000",
"8  c #6B0001",
"9  c #730001",
"0  c #7C0001",
"q  c #700909",
"w  c #7C0808",
"e  c #661A1B",
"r  c #771212",
"t  c #462121",
"y  c #492525",
"u  c #442929",
"i  c #4A2A2A",
"p  c #552121",
"a  c #5C2021",
"s  c #502F2F",
"d  c #5C2D2D",
"f  c #4B3535",
"g  c #523535",
"h  c #593636",
"j  c #533C3C",
"k  c #5A3E3E",
"l  c #652525",
"z  c #632F2F",
"x  c #6F2D2D",
"c  c #663232",
"v  c #6B3535",
"b  c #633838",
"n  c #753030",
"m  c #7D3636",
"M  c #703C3C",
"N  c #4F4242",
"B  c #4E4E4E",
"V  c #554242",
"C  c #5B4242",
"Z  c #594B4B",
"A  c #565454",
"S  c #5B5353",
"D  c #624343",
"F  c #634949",
"G  c #734445",
"H  c #7A4E4E",
"J  c #695353",
"K  c #685A5A",
"L  c #755353",
"P  c #705F5F",
"I  c #785A5A",
"U  c #626262",
"Y  c #736363",
"T  c #7C6464",
"R  c #776B6B",
"E  c #777777",
"W  c #7C7272",
"Q  c #7E7878",
"!  c #830001",
"~  c #8B0001",
"^  c #930001",
"/  c #9B0002",
"(  c #A30002",
")  c #AB0002",
"_  c #B60001",
"`  c #B80002",
"'  c #866D6D",
"]  c #847575",
"[  c #8D7474",
"{  c #867C7C",
"}  c #8D7C7C",
"|  c #947C7C",
" . c #987B7B",
".. c #848484",
"X. c #8B8181",
"o. c #8B8B8B",
"O. c #918484",
"+. c #988080",
"@. c #928D8D",
"#. c #9A8B8B",
"$. c #949393",
"%. c #989393",
"&. c #9C9C9C",
"*. c #A49393",
"=. c #A29C9C",
"-. c #AC9D9E",
";. c #A4A4A4",
":. c #AAAAAA",
">. c #B2ABAB",
",. c #B4B4B4",
"<. c #BAB5B5",
"1. c #BCBCBC",
"2. c #C2BDBD",
"3. c #C5C4C4",
"4. c #CCCCCC",
"5. c #D4D4D4",
"6. c #DBD6D6",
"7. c #DBDBDB",
"8. c #E0DEDE",
"9. c #E4E4E4",
"0. c #EBEBEB",
"q. c #F0EEEE",
"w. c #F4F5F5",
"e. c #F7F8F8",
"r. c #FEFEFE",
"t. c None",
/* pixels */
"t.t.t.t.t.t.4.6.6.7.7.7.7.7.7.7.7.7.7.7.7.7.7.7.7.7.7.7.7.7.7.7.7.6.6.7.6.7.5.6.5.4.t.t.t.t.t.t.",
"t.t.t.t.,.3.4.4.4.4.4.4.4.4.4.4.5.4.5.4.4.4.5.4.4.5.4.4.5.4.4.4.5.4.4.4.4.4.4.4.3.4.3.1.t.t.t.t.",
"t.t.t.:.1.3.4.0.e.e.e.r.e.e.r.e.e.r.e.r.r.r.e.r.r.r.e.r.e.r.r.r.e.e.e.e.e.e.r.e.9.5.1.1.:.t.t.t.",
"t.t.;.,.1.7.e.7.>.%.@.@.@.@.@.@.@.@.@.@.@.@.@.@.o.@.@.@.@.@.o.o.$.@.@.@.o.o.@.:.7.e.7.1.,.;.t.t.",
"t.%.:.1.7.0.O.= O O + + + + + O o o o X X X X X X X X . . . . . . .   .   . .   # { 0.8.,.,.@.t.",
"t.;.,.4.0.Y X - , < , , , , ; ; ; ; ; ; - - - @ @ @ @ @ @ + + + + o o o o o o o .   S 0.5.,.;.t.",
"@.:.,.w.O.X , 7 < < < < , , , , ; ; ; - - - @ @ @ @ + + + + + + + o + o o o + o o o   Q q.1.:...",
"$.,.5.9.= ; 8 8 7 7 < < < , , , , ; ; - - @ + o o o o o X X o o o + o o o + o o o o X # 5.5.,.o.",
"&.,.9.:.+ 7 8 8 8 7 < < < < , , , , ; - : F J f & Y Y # j K V O o + o o o o o o o o o . &.0.,.$.",
"&.1.w.%.- 8 9 8 8 7 7 7 7 < < 1 , , ; - i &.9.0.5.e.e.6.0.3.%.$ + + + + + o o + + o o . ..w.1.&.",
"&.1.w.@.; 9 9 8 8 7 7 7 7 < < < , , , ; @ o R r.r.r.r.r.9.N X o + + + + + o o o o o o X { w.1.&.",
"&.1.0.#.; 0 9 8 8 8 7 7 7 < < < , , , ; - o V e.r.r.r.r.8.V X o + @ + + o + o o o o o X { w.1.&.",
"&.2.q.#.; 0 9 8 8 8 7 7 8 7 7 < < , , , ; + C e.r.r.r.r.w.N X + @ + + + + o o o o o o X { w.1.&.",
"&.2.w.@.; 0 0 9 q 8 8 8 8 8 7 < < < < , ; @ C e.r.r.r.r.e.V o @ @ @ @ + + + + + + o o X { w.1.&.",
"&.2.w.@., 0 0 9 9 9 8 8 8 8 7 7 7 < < < ; @ C e.r.r.r.3.8.V o + @ @ @ + + + + o o o o X { q.3.&.",
";.3.w.@., ! ! 0 9 8 8 8 8 q 8 7 < < < , , @ C e.r.r.r.1.:.j o @ @ @ @ @ @ + + o + o o X ..w.2.;.",
"&.2.w.#., ! ! 0 9 0 0 9 9 9 8 8 7 < < < , @ C e.r.r.r.r.9.f o @ - @ @ @ @ + + + + + o X { w.2.&.",
";.3.w.#., ~ ! ! w 0 9 9 9 9 8 8 7 7 < < , @ C e.r.r.r.r.e.V o @ @ - @ @ @ + + + + o o X { w.3.&.",
"&.4.w.#., ^ ~ ~ ! 0 9 9 9 9 8 8 7 7 7 < , - C e.r.r.r.r.e.V o @ - @ @ @ @ + + + + o o X { w.3.&.",
";.3.w.#., ~ ~ ! ! ! 0 9 9 8 8 8 7 7 7 7 , - C 8.r.r.r.r.e.V o - - - - - @ @ @ + + + o X { e.3.;.",
";.3.w.#.< ^ ~ ~ ! ! ! 0 9 8 8 8 8 7 7 < , - f S 3.r.0.7.e.j o @ - - - @ @ @ @ + + + + X { w.3.;.",
"&.4.w.#., ^ ~ ~ ~ ! ! ! 0 8 9 8 8 8 7 < , @ C :.&.e.0.:.0.V o @ @ - - @ @ @ @ @ + + + X { e.3.;.",
";.4.w.@.< ^ ^ ~ ~ ~ ! ! ! 0 9 9 8 7 7 < ; g X.r.9.3.r.w.w.Q u + - - - - - @ @ + + + + X { w.3.;.",
";.3.w.#.< ^ ^ ^ ^ ~ ~ ! 0 0 0 9 q 8 7 7 3 1.r.r.r.r.r.r.r.r.3.i @ - - - - @ @ @ @ + + X { w.4.;.",
";.4.w.#.7 ^ ^ ^ ^ ~ ~ ! ! 0 0 0 9 8 8 7 ; y ,.r.r.r.r.r.r.3.i + - - - - - @ @ @ @ + + X { e.4.;.",
";.4.w.#.7 / ^ ~ ! r w ! 0 ! 0 0 9 9 8 7 , @ J r.r.r.r.r.r.K o @ - ; ; - - - - @ @ @ + X { e.3.;.",
";.4.e.#.8 ( / ~ 8 *.m 0 0 ~ ! 0 0 9 8 8 < - k w.r.r.r.r.e.V + - ; - ; - - - @ @ @ + + o { w.3.:.",
";.4.w.#.8 ( ( ^ w | n 8 9 ! ! 0 0 9 9 8 7 ; y 7.r.r.r.r.e.C + ; ; ; ; - - - - @ @ @ @ X { e.4.:.",
":.4.w.#.8 ) ( / ! q q 8 l x 0 0 0 9 9 8 7 ; b q.e.r.r.r.e.C @ ; ; ; ; ; - - - - @ @ @ X { w.3.;.",
";.4.w.#.9 ) ) ( ~ ! 0 8 M [ 7 0 ! 0 9 8 7 ; F e.r.r.r.r.w.j @ ; ; ; ; ; ; - @ - @ @ @ o { e.4.:.",
":.4.w.#.8 ( ( ^ ~ ~ ~ 9 v >.1 8 0 ! 0 8 7 ; D e.r.r.r.r.w.g @ ; ; , ; ; - - - @ @ @ + o { w.4.:.",
":.4.e.#.8 / ^ ^ ~ ~ ! 9 v 5.z < 9 0 ! 9 7 ; D e.r.r.r.r.9.i @ ; , ; ; ; ; ; - - - @ @ o { e.4.;.",
";.4.w.#.7 / / / ^ ~ ! 9 v q.T ; 8 9 0 0 7 , D e.r.r.r.r.6.% - ; , ; ; ; ; - - - - @ @ o { e.4.;.",
":.4.w.#.7 / / / / ^ ! 9 a 9.2.3 , 8 9 9 8 ; D w.r.r.r.r.<.O ; , , , , ; ; ; - - - - @ o { e.4.;.",
":.4.w.#.7 / ( / / ~ ! 9 6 8.r.{ ; 7 8 9 7 ; F e.r.r.r.r.] @ , , , , , ; ; - ; - - - @ o { e.4.:.",
":.4.w.#.7 / / / / ^ ~ 8 c 0.r.w.I , 8 9 7 @ ] r.r.r.r.9.s - , , , , , ; ; ; ; - - @ - o { w.4.:.",
";.4.w.#.8 / ( / / / ~ 9 H w.w.,.Y - 1 7 > T 9.r.r.r.r.O.@ , , 7 , , , ; ; ; - - - - - o { e.4.:.",
":.4.w.#.7 ( ( ( ( / ^ 0 e G T 3 * > J 4 h 0.r.r.r.0.@.: ; , , < 7 < , ; , ; ; - - - @ o { w.4.;.",
":.4.w.#.8 _ ) ) ( ( ^ ~ 0 8 7 < 1 ; ' ,.=.9.9.4.#.h - ; , < < < , 7 , , ; ; ; ; - - - o } w.3.:.",
";.4.0.>., _ _ ) ( / ^ ^ ~ ! 0 0 9 7 2 z b d p > ; ; , < 7 < 7 < < , , , , ; ; - ; - @ o =.w.3.:.",
"=.4.7.8.p / _ ) ( / ^ ^ ~ ~ ~ ! ! 9 8 7 , 7 < 7 7 7 7 7 7 7 7 < < < , , ; ; ; - - - @ & 5.8.3.&.",
"&.2.4.e.| , ( ) ( ^ / ^ ^ ^ ^ ~ ! 0 0 9 9 9 8 9 8 8 8 7 7 7 < < , , , , , , ; ; - - X W e.4.3.o.",
"t.,.3.8.0.L , ^ ( / ^ ^ ^ / ^ ~ ~ ! ! 0 0 9 9 9 9 8 8 8 7 7 7 < 7 , , , , ; ; ; - o Z 9.8.3.,.S ",
"t.;.4.4.q.0.} 6 7 9 9 9 9 8 9 9 8 8 8 7 < 7 7 < < , , , , ; ; ; - ; - - - @ + + $ W 9.0.4.4.&.t.",
"t.t.<.5.6.e.r.6.-.+. . .|  .|  .| | | | | | | | | | | } } } | } } } } } { } X.=.5.r.q.5.4.,.B t.",
"t.t.t.1.5.7.q.e.r.r.r.r.r.r.r.r.r.r.r.r.r.r.r.r.r.r.r.r.r.r.r.r.r.r.r.r.r.r.r.r.r.0.7.5.1.U t.t.",
"t.t.t.t.,.6.7.9.9.9.9.9.9.9.9.0.9.0.0.9.0.0.0.9.0.0.0.9.9.0.0.9.9.9.9.9.9.8.9.8.7.7.5.,.A t.t.t.",
"t.t.t.t.t...1.5.7.9.9.9.9.9.9.9.9.9.9.9.9.9.9.9.9.9.9.9.9.9.9.9.9.9.9.9.9.8.9.8.5.,.E t.t.t.t.t."
};
